<svg width="172" height="50" viewBox="0 0 172 50" fill="none" xmlns="http://www.w3.org/2000/svg">
<rect y="0.5" width="172" height="49" rx="10" fill="#F5F3F0"/>
<path d="M15.54 33.5V17.66H17.498V24.645H25.836V17.66H27.794V33.5H25.836V26.504H17.498V33.5H15.54ZM36.0278 33.83C34.8618 33.83 33.8425 33.5733 32.9698 33.06C32.1045 32.5393 31.4298 31.817 30.9458 30.893C30.4618 29.9617 30.2198 28.8763 30.2198 27.637C30.2198 26.339 30.4582 25.217 30.9348 24.271C31.4115 23.3177 32.0752 22.5843 32.9258 22.071C33.7838 21.5503 34.7885 21.29 35.9398 21.29C37.1352 21.29 38.1508 21.565 38.9868 22.115C39.8302 22.665 40.4608 23.4497 40.8788 24.469C41.3042 25.4883 41.4875 26.702 41.4288 28.11H39.4488V27.406C39.4268 25.9467 39.1298 24.8577 38.5578 24.139C37.9858 23.413 37.1352 23.05 36.0058 23.05C34.7958 23.05 33.8755 23.4387 33.2448 24.216C32.6142 24.9933 32.2988 26.108 32.2988 27.56C32.2988 28.9607 32.6142 30.046 33.2448 30.816C33.8755 31.586 34.7738 31.971 35.9398 31.971C36.7245 31.971 37.4065 31.7913 37.9858 31.432C38.5652 31.0727 39.0198 30.5557 39.3498 29.881L41.2308 30.53C40.7688 31.5787 40.0722 32.3927 39.1408 32.972C38.2168 33.544 37.1792 33.83 36.0278 33.83ZM31.6388 28.11V26.537H40.4168V28.11H31.6388ZM44.0979 33.5V17.33H46.0559V33.5H44.0979ZM49.5764 33.5V17.33H51.5344V33.5H49.5764ZM59.8949 33.83C58.7143 33.83 57.6949 33.5623 56.8369 33.027C55.9863 32.4917 55.3299 31.751 54.8679 30.805C54.4059 29.859 54.1749 28.7737 54.1749 27.549C54.1749 26.3023 54.4096 25.2097 54.8789 24.271C55.3483 23.3323 56.0119 22.6027 56.8699 22.082C57.7279 21.554 58.7363 21.29 59.8949 21.29C61.0829 21.29 62.1059 21.5577 62.9639 22.093C63.8219 22.621 64.4783 23.358 64.9329 24.304C65.3949 25.2427 65.6259 26.3243 65.6259 27.549C65.6259 28.7883 65.3949 29.881 64.9329 30.827C64.4709 31.7657 63.8109 32.5027 62.9529 33.038C62.0949 33.566 61.0756 33.83 59.8949 33.83ZM59.8949 31.971C61.1269 31.971 62.0436 31.5603 62.6449 30.739C63.2463 29.9177 63.5469 28.8543 63.5469 27.549C63.5469 26.207 63.2426 25.14 62.6339 24.348C62.0253 23.5487 61.1123 23.149 59.8949 23.149C59.0663 23.149 58.3843 23.336 57.8489 23.71C57.3136 24.084 56.9139 24.601 56.6499 25.261C56.3859 25.921 56.2539 26.6837 56.2539 27.549C56.2539 28.8837 56.5619 29.9543 57.1779 30.761C57.7939 31.5677 58.6996 31.971 59.8949 31.971ZM76.5331 33.5V19.519H71.1321V17.66H83.8921V19.519H78.4911V33.5H76.5331ZM94.1025 33.5V27.549C94.1025 26.9843 94.0512 26.4417 93.9485 25.921C93.8532 25.4003 93.6808 24.9347 93.4315 24.524C93.1895 24.106 92.8595 23.776 92.4415 23.534C92.0308 23.292 91.5102 23.171 90.8795 23.171C90.3882 23.171 89.9408 23.2553 89.5375 23.424C89.1415 23.5853 88.8005 23.8347 88.5145 24.172C88.2285 24.5093 88.0048 24.9347 87.8435 25.448C87.6895 25.954 87.6125 26.5517 87.6125 27.241L86.3255 26.845C86.3255 25.6937 86.5308 24.7073 86.9415 23.886C87.3595 23.0573 87.9425 22.423 88.6905 21.983C89.4458 21.5357 90.3332 21.312 91.3525 21.312C92.1225 21.312 92.7788 21.433 93.3215 21.675C93.8642 21.917 94.3152 22.2397 94.6745 22.643C95.0338 23.039 95.3162 23.4863 95.5215 23.985C95.7269 24.4763 95.8698 24.9787 95.9505 25.492C96.0385 25.998 96.0825 26.4783 96.0825 26.933V33.5H94.1025ZM85.6325 33.5V17.66H87.3925V26.405H87.6125V33.5H85.6325ZM104.09 33.83C102.924 33.83 101.905 33.5733 101.032 33.06C100.167 32.5393 99.4923 31.817 99.0083 30.893C98.5243 29.9617 98.2823 28.8763 98.2823 27.637C98.2823 26.339 98.5207 25.217 98.9973 24.271C99.474 23.3177 100.138 22.5843 100.988 22.071C101.846 21.5503 102.851 21.29 104.002 21.29C105.198 21.29 106.213 21.565 107.049 22.115C107.893 22.665 108.523 23.4497 108.941 24.469C109.367 25.4883 109.55 26.702 109.491 28.11H107.511V27.406C107.489 25.9467 107.192 24.8577 106.62 24.139C106.048 23.413 105.198 23.05 104.068 23.05C102.858 23.05 101.938 23.4387 101.307 24.216C100.677 24.9933 100.361 26.108 100.361 27.56C100.361 28.9607 100.677 30.046 101.307 30.816C101.938 31.586 102.836 31.971 104.002 31.971C104.787 31.971 105.469 31.7913 106.048 31.432C106.628 31.0727 107.082 30.5557 107.412 29.881L109.293 30.53C108.831 31.5787 108.135 32.3927 107.203 32.972C106.279 33.544 105.242 33.83 104.09 33.83ZM99.7013 28.11V26.537H108.479V28.11H99.7013ZM111.94 33.5V21.62H113.689V24.491L113.403 24.117C113.543 23.7503 113.722 23.413 113.942 23.105C114.17 22.797 114.423 22.544 114.701 22.346C115.009 22.0967 115.358 21.906 115.746 21.774C116.135 21.642 116.531 21.565 116.934 21.543C117.338 21.5137 117.715 21.5393 118.067 21.62V23.457C117.657 23.347 117.206 23.3177 116.714 23.369C116.223 23.4203 115.768 23.6 115.35 23.908C114.969 24.1793 114.672 24.5093 114.459 24.898C114.254 25.2867 114.111 25.7083 114.03 26.163C113.95 26.6103 113.909 27.0687 113.909 27.538V33.5H111.94ZM125.081 33.83C123.915 33.83 122.895 33.5733 122.023 33.06C121.157 32.5393 120.483 31.817 119.999 30.893C119.515 29.9617 119.273 28.8763 119.273 27.637C119.273 26.339 119.511 25.217 119.988 24.271C120.464 23.3177 121.128 22.5843 121.979 22.071C122.837 21.5503 123.841 21.29 124.993 21.29C126.188 21.29 127.204 21.565 128.04 22.115C128.883 22.665 129.514 23.4497 129.932 24.469C130.357 25.4883 130.54 26.702 130.482 28.11H128.502V27.406C128.48 25.9467 128.183 24.8577 127.611 24.139C127.039 23.413 126.188 23.05 125.059 23.05C123.849 23.05 122.928 23.4387 122.298 24.216C121.667 24.9933 121.352 26.108 121.352 27.56C121.352 28.9607 121.667 30.046 122.298 30.816C122.928 31.586 123.827 31.971 124.993 31.971C125.777 31.971 126.459 31.7913 127.039 31.432C127.618 31.0727 128.073 30.5557 128.403 29.881L130.284 30.53C129.822 31.5787 129.125 32.3927 128.194 32.972C127.27 33.544 126.232 33.83 125.081 33.83ZM120.692 28.11V26.537H129.47V28.11H120.692ZM135.795 35.04H157.795V13.04H135.795V35.04Z" fill="#4D4D4D"/>
</svg>
