<svg width="143" height="23" viewBox="0 0 143 23" fill="none" xmlns="http://www.w3.org/2000/svg">
<path d="M0.54 20.5V4.66H2.498V11.645H10.836V4.66H12.794V20.5H10.836V13.504H2.498V20.5H0.54ZM21.0278 20.83C19.8618 20.83 18.8425 20.5733 17.9698 20.06C17.1045 19.5393 16.4298 18.817 15.9458 17.893C15.4618 16.9617 15.2198 15.8763 15.2198 14.637C15.2198 13.339 15.4582 12.217 15.9348 11.271C16.4115 10.3177 17.0752 9.58433 17.9258 9.071C18.7838 8.55033 19.7885 8.29 20.9398 8.29C22.1352 8.29 23.1508 8.565 23.9868 9.115C24.8302 9.665 25.4608 10.4497 25.8788 11.469C26.3042 12.4883 26.4875 13.702 26.4288 15.11H24.4488V14.406C24.4268 12.9467 24.1298 11.8577 23.5578 11.139C22.9858 10.413 22.1352 10.05 21.0058 10.05C19.7958 10.05 18.8755 10.4387 18.2448 11.216C17.6142 11.9933 17.2988 13.108 17.2988 14.56C17.2988 15.9607 17.6142 17.046 18.2448 17.816C18.8755 18.586 19.7738 18.971 20.9398 18.971C21.7245 18.971 22.4065 18.7913 22.9858 18.432C23.5652 18.0727 24.0198 17.5557 24.3498 16.881L26.2308 17.53C25.7688 18.5787 25.0722 19.3927 24.1408 19.972C23.2168 20.544 22.1792 20.83 21.0278 20.83ZM16.6388 15.11V13.537H25.4168V15.11H16.6388ZM29.0979 20.5V4.33H31.0559V20.5H29.0979ZM34.5764 20.5V4.33H36.5344V20.5H34.5764ZM44.8949 20.83C43.7143 20.83 42.6949 20.5623 41.8369 20.027C40.9863 19.4917 40.3299 18.751 39.8679 17.805C39.4059 16.859 39.1749 15.7737 39.1749 14.549C39.1749 13.3023 39.4096 12.2097 39.8789 11.271C40.3483 10.3323 41.0119 9.60267 41.8699 9.082C42.7279 8.554 43.7363 8.29 44.8949 8.29C46.0829 8.29 47.1059 8.55767 47.9639 9.093C48.8219 9.621 49.4783 10.358 49.9329 11.304C50.3949 12.2427 50.6259 13.3243 50.6259 14.549C50.6259 15.7883 50.3949 16.881 49.9329 17.827C49.4709 18.7657 48.8109 19.5027 47.9529 20.038C47.0949 20.566 46.0756 20.83 44.8949 20.83ZM44.8949 18.971C46.1269 18.971 47.0436 18.5603 47.6449 17.739C48.2463 16.9177 48.5469 15.8543 48.5469 14.549C48.5469 13.207 48.2426 12.14 47.6339 11.348C47.0253 10.5487 46.1123 10.149 44.8949 10.149C44.0663 10.149 43.3843 10.336 42.8489 10.71C42.3136 11.084 41.9139 11.601 41.6499 12.261C41.3859 12.921 41.2539 13.6837 41.2539 14.549C41.2539 15.8837 41.5619 16.9543 42.1779 17.761C42.7939 18.5677 43.6996 18.971 44.8949 18.971ZM61.5331 20.5V6.519H56.1321V4.66H68.8921V6.519H63.4911V20.5H61.5331ZM79.1025 20.5V14.549C79.1025 13.9843 79.0512 13.4417 78.9485 12.921C78.8532 12.4003 78.6808 11.9347 78.4315 11.524C78.1895 11.106 77.8595 10.776 77.4415 10.534C77.0308 10.292 76.5102 10.171 75.8795 10.171C75.3882 10.171 74.9408 10.2553 74.5375 10.424C74.1415 10.5853 73.8005 10.8347 73.5145 11.172C73.2285 11.5093 73.0048 11.9347 72.8435 12.448C72.6895 12.954 72.6125 13.5517 72.6125 14.241L71.3255 13.845C71.3255 12.6937 71.5308 11.7073 71.9415 10.886C72.3595 10.0573 72.9425 9.423 73.6905 8.983C74.4458 8.53567 75.3332 8.312 76.3525 8.312C77.1225 8.312 77.7788 8.433 78.3215 8.675C78.8642 8.917 79.3152 9.23967 79.6745 9.643C80.0338 10.039 80.3162 10.4863 80.5215 10.985C80.7269 11.4763 80.8698 11.9787 80.9505 12.492C81.0385 12.998 81.0825 13.4783 81.0825 13.933V20.5H79.1025ZM70.6325 20.5V4.66H72.3925V13.405H72.6125V20.5H70.6325ZM89.0903 20.83C87.9243 20.83 86.905 20.5733 86.0323 20.06C85.167 19.5393 84.4923 18.817 84.0083 17.893C83.5243 16.9617 83.2823 15.8763 83.2823 14.637C83.2823 13.339 83.5207 12.217 83.9973 11.271C84.474 10.3177 85.1377 9.58433 85.9883 9.071C86.8463 8.55033 87.851 8.29 89.0023 8.29C90.1977 8.29 91.2133 8.565 92.0493 9.115C92.8927 9.665 93.5233 10.4497 93.9413 11.469C94.3667 12.4883 94.55 13.702 94.4913 15.11H92.5113V14.406C92.4893 12.9467 92.1923 11.8577 91.6203 11.139C91.0483 10.413 90.1977 10.05 89.0683 10.05C87.8583 10.05 86.938 10.4387 86.3073 11.216C85.6767 11.9933 85.3613 13.108 85.3613 14.56C85.3613 15.9607 85.6767 17.046 86.3073 17.816C86.938 18.586 87.8363 18.971 89.0023 18.971C89.787 18.971 90.469 18.7913 91.0483 18.432C91.6277 18.0727 92.0823 17.5557 92.4123 16.881L94.2933 17.53C93.8313 18.5787 93.1347 19.3927 92.2033 19.972C91.2793 20.544 90.2417 20.83 89.0903 20.83ZM84.7013 15.11V13.537H93.4793V15.11H84.7013ZM96.9404 20.5V8.62H98.6894V11.491L98.4034 11.117C98.5427 10.7503 98.7224 10.413 98.9424 10.105C99.1697 9.797 99.4227 9.544 99.7014 9.346C100.009 9.09667 100.358 8.906 100.746 8.774C101.135 8.642 101.531 8.565 101.934 8.543C102.338 8.51367 102.715 8.53933 103.067 8.62V10.457C102.657 10.347 102.206 10.3177 101.714 10.369C101.223 10.4203 100.768 10.6 100.35 10.908C99.9691 11.1793 99.6721 11.5093 99.4594 11.898C99.2541 12.2867 99.1111 12.7083 99.0304 13.163C98.9497 13.6103 98.9094 14.0687 98.9094 14.538V20.5H96.9404ZM110.081 20.83C108.915 20.83 107.895 20.5733 107.023 20.06C106.157 19.5393 105.483 18.817 104.999 17.893C104.515 16.9617 104.273 15.8763 104.273 14.637C104.273 13.339 104.511 12.217 104.988 11.271C105.464 10.3177 106.128 9.58433 106.979 9.071C107.837 8.55033 108.841 8.29 109.993 8.29C111.188 8.29 112.204 8.565 113.04 9.115C113.883 9.665 114.514 10.4497 114.932 11.469C115.357 12.4883 115.54 13.702 115.482 15.11H113.502V14.406C113.48 12.9467 113.183 11.8577 112.611 11.139C112.039 10.413 111.188 10.05 110.059 10.05C108.849 10.05 107.928 10.4387 107.298 11.216C106.667 11.9933 106.352 13.108 106.352 14.56C106.352 15.9607 106.667 17.046 107.298 17.816C107.928 18.586 108.827 18.971 109.993 18.971C110.777 18.971 111.459 18.7913 112.039 18.432C112.618 18.0727 113.073 17.5557 113.403 16.881L115.284 17.53C114.822 18.5787 114.125 19.3927 113.194 19.972C112.27 20.544 111.232 20.83 110.081 20.83ZM105.692 15.11V13.537H114.47V15.11H105.692ZM120.795 22.04H142.795V0.0399998H120.795V22.04Z" fill="#4D4D4D"/>
</svg>
